# xmcd
#
# Track frame offsets:
#  150
#  11057
#  21301
#  34305
#  44225
#  56220
#  66408
#  76377
#  87861
#  99207
#  112004
#  122533
#  133439
#
# Disc length: 1909 seconds
#
# Revision: 0
# Processed by: cddbd v1.5.2PL0 Copyright (c) Steve Scherf et al.
# Submitted via: Collectorz.com Music Collector 6.9
#
DISCID=bd07730d
DTITLE=Johnny Cash - The Gospel Music Of [CD1]
DYEAR=2008
DGENRE=Christian Country
TTITLE0=Belshazzar
TTITLE1=I Was There When It Happened
TTITLE2=God Has My Fortune Laid Away
TTITLE3=He Turned The Water Into Wine (Live)
TTITLE4=Daddy Sang Bass (Live)
TTITLE5=When The Saints Go Marching In (Live)
TTITLE6=Man In Black (Live)
TTITLE7=Gospel Road
TTITLE8=Over The Next Hill We'll Be Home (Live)
TTITLE9=Peace In The Valley (Live)
TTITLE10=Why Me (Live)
TTITLE11=The Old Rugged Cross (Live)
TTITLE12=I'm Just An Old Chunk Of Coal (Live)
EXTD=
EXTT0=
EXTT1=
EXTT2=
EXTT3=
EXTT4=
EXTT5=
EXTT6=
EXTT7=
EXTT8=
EXTT9=
EXTT10=
EXTT11=
EXTT12=
PLAYORDER=
